<?xml version="1.0" encoding="utf-8"?>
<!-- Generator: Adobe Illustrator 19.0.0, SVG Export Plug-In . SVG Version: 6.00 Build 0)  -->
<svg version="1.1" id="Layer_1" xmlns="http://www.w3.org/2000/svg"  x="0px" y="0px"
	 viewBox="0 0 50 5.14122" style="enable-background:new 0 0 50 5.14122;" xml:space="preserve">
<style type="text/css">
	.st0{fill:#DC2235;}
</style>
<g id="XMLID_2_">
	<path id="XMLID_3_" class="st0" d="M4.50109,1.28587H0c0-0.29199,0.0146-0.4975,0.04492-0.61767
		c0.05166-0.21113,0.16396-0.3706,0.33466-0.47729C0.58173,0.06289,0.88382,0,1.28587,0h1.92936
		c0.40204,0,0.70302,0.06289,0.90404,0.18755C4.28884,0.29311,4.40002,0.45258,4.4528,0.66483
		C4.48537,0.79286,4.50109,0.99949,4.50109,1.28587z M4.50109,3.85535c0,0.29086-0.0146,0.4975-0.04492,0.61767
		c-0.05278,0.21113-0.16396,0.3706-0.33466,0.47729c-0.20214,0.1269-0.50424,0.19091-0.90628,0.19091H1.28587
		c-0.40204,0-0.70302-0.06289-0.90404-0.18867C0.21225,4.84699,0.10107,4.68864,0.04717,4.47527
		C0.01572,4.34836,0,4.14173,0,3.85535V1.92599h1.28587v1.92936h1.92936V3.21186H1.92936V1.92599h1.28587
		c0.40204,0,0.70302,0.06289,0.90404,0.18867C4.28884,2.22023,4.40002,2.3797,4.4528,2.59195
		c0.03257,0.1269,0.04829,0.33354,0.04829,0.61991V3.85535z"/>
	<path id="XMLID_6_" class="st0" d="M9.64456,5.14122H8.3587V3.21186H6.42933v1.92936H5.14347V1.92599H8.3587V1.28587H5.14347
		c0-0.29199,0.0146-0.4975,0.04492-0.61767c0.05166-0.21113,0.16396-0.3706,0.33466-0.47729C5.72519,0.06289,6.02729,0,6.42933,0
		H8.3587c0.40204,0,0.70302,0.06289,0.90404,0.18755c0.16958,0.10556,0.28076,0.26503,0.33354,0.47729
		c0.03257,0.1269,0.04829,0.33354,0.04829,0.61991V5.14122z"/>
	<path id="XMLID_8_" class="st0" d="M15.43265,5.14122h-1.28699V1.28587h-0.64237v3.21186h-1.28587V1.28587h-1.92936
		c0-0.29199,0.0146-0.4975,0.04492-0.61767c0.05166-0.21113,0.16396-0.3706,0.33466-0.47729C10.86979,0.06289,11.17188,0,11.57392,0
		h2.57173c0.40204,0,0.70414,0.0584,0.90516,0.17519c0.1707,0.10107,0.28188,0.25493,0.33354,0.46269
		c0.03144,0.1269,0.04829,0.34252,0.04829,0.64686V5.14122z M11.57392,5.14122h-1.28587V1.92824h1.28587V5.14122z"/>
	<path id="XMLID_11_" class="st0" d="M20.48066,1.28587h-4.50109V0h4.50109V1.28587z M20.48066,5.14122h-4.50109V1.92599h3.21523
		v1.28587h-1.92936v0.64349h3.21523V5.14122z"/>
	<path id="XMLID_14_" class="st0" d="M29.48228,5.14122h-1.28587V3.21186h-1.92936v1.92936h-1.28587V1.92599h3.21523V0h1.28587
		V5.14122z M26.26706,1.28587h-1.28587V0h1.28587V1.28587z"/>
	<path id="XMLID_17_" class="st0" d="M34.62575,3.85535c0,0.29199-0.0146,0.4975-0.04492,0.61767
		c-0.05278,0.21113-0.16396,0.3706-0.33466,0.47729c-0.20214,0.1269-0.50424,0.19091-0.90628,0.19091h-1.92936
		c-0.40204,0-0.70301-0.06289-0.90404-0.18867c-0.16958-0.10444-0.28076-0.26391-0.33466-0.47616
		c-0.03144-0.1269-0.04717-0.33354-0.04717-0.61991V1.92824h1.28587v1.92712h1.92936V1.28587h-3.21523
		c0-0.29199,0.0146-0.4975,0.04492-0.61767c0.05166-0.21113,0.16396-0.3706,0.33466-0.47729C30.70638,0.06289,31.00848,0,31.41052,0
		h1.92936c0.40204,0,0.70301,0.06289,0.90404,0.18755c0.16957,0.10556,0.28075,0.26503,0.33354,0.47729
		c0.03257,0.1269,0.04829,0.33354,0.04829,0.61991V3.85535z"/>
	<path id="XMLID_19_" class="st0" d="M39.77034,3.85535c0,0.29199-0.0146,0.4975-0.04492,0.61767
		c-0.05278,0.21113-0.16396,0.3706-0.33466,0.47729c-0.20214,0.1269-0.50424,0.19091-0.90628,0.19091h-1.92936
		c-0.40204,0-0.70301-0.06289-0.90404-0.18867c-0.16957-0.10557-0.28075-0.26391-0.33466-0.47729
		c-0.03144-0.1269-0.04717-0.33354-0.04717-0.61991V1.92599h1.28587v1.92936h1.92936V0h1.28587V3.85535z M36.55511,1.28587h-1.28587
		V0h1.28587V1.28587z"/>
	<path id="XMLID_22_" class="st0" d="M44.85653,5.14122h-1.28587V1.28587h-3.21523V0h3.21523
		c0.40204,0,0.70301,0.06289,0.90404,0.18755c0.16957,0.10556,0.28075,0.26503,0.33354,0.47729
		c0.03257,0.1269,0.04829,0.33354,0.04829,0.61991V5.14122z M41.6413,5.14122h-1.28587V1.92599h1.28587V5.14122z"/>
	<path id="XMLID_25_" class="st0" d="M50,3.85535c0,0.29199-0.0146,0.4975-0.04492,0.61767
		c-0.05278,0.21113-0.16396,0.3706-0.33466,0.47729c-0.20215,0.1269-0.50424,0.19091-0.90628,0.19091h-3.21523v-3.2478h1.28587
		v1.96193h1.92936V1.28587h-3.21523V0h3.21523c0.40204,0,0.70301,0.06289,0.90404,0.18755
		c0.16957,0.10556,0.28075,0.26503,0.33354,0.47729C49.98428,0.79173,50,0.99837,50,1.28474V3.85535z"/>
</g>
<g id="XMLID_52_">
</g>
<g id="XMLID_53_">
</g>
<g id="XMLID_54_">
</g>
<g id="XMLID_55_">
</g>
<g id="XMLID_56_">
</g>
<g id="XMLID_57_">
</g>
</svg>
